<?xml version="1.0" encoding="utf-8"?>
<svg version="1.1" xmlns:xlink="http://www.w3.org/1999/xlink" width="36px" height="47px" xmlns="http://www.w3.org/2000/svg">
  <g transform="matrix(1 0 0 1 -71 -60 )">
    <path d="M 27.09375 1.7834821428571104  L 34.40625 9.96651785714289  C 34.84375 10.45610119047619  35.21875 11.120535714285651  35.53125 11.959821428571447  C 35.84375 12.79910714285711  36 13.568452380952367  36 14.26785714285711  L 36 44.48214285714289  C 36 45.18154761904762  35.78125 45.776041666666714  35.34375 46.265625  C 34.90625 46.755208333333286  34.375 47  33.75 47  L 2.25 47  C 1.625 47  1.09375 46.755208333333286  0.65625 46.265625  C 0.21875 45.776041666666714  0 45.18154761904762  0 44.48214285714289  L 0 2.5178571428571104  C 0 1.8184523809523654  0.21875 1.223958333333286  0.65625 0.734375  C 1.09375 0.24479166666671404  1.625 0  2.25 0  L 23.25 0  C 23.875 0  24.5625 0.1748511904761898  25.3125 0.5245535714285552  C 26.0625 0.8742559523809206  26.65625 1.2938988095238102  27.09375 1.7834821428571104  Z M 24.9609375 4.143973214285651  C 24.7734375 3.9341517857143486  24.453125 3.7418154761905242  24 3.5669642857143486  L 24 13.428571428571447  L 32.8125 13.428571428571447  C 32.65625 12.921502976190526  32.484375 12.563058035714349  32.296875 12.35323660714289  L 24.9609375 4.143973214285651  Z M 3 43  L 33 43  L 33 16.78571428571435  L 23.25 16.78571428571435  C 22.625 16.78571428571435  22.09375 16.540922619047635  21.65625 16.05133928571435  C 21.21875 15.56175595238092  21 14.967261904761841  21 14.26785714285711  L 21 4  L 3 4  L 3 43  Z M 22.5 23.5  L 30 31.892857142857107  L 30 40  L 6 40  L 6 35.25  L 10.5 30.214285714285666  L 13.5 33.571428571428555  L 22.5 23.5  Z M 13.6875 25.388392857142893  C 12.8125 26.367559523809476  11.75 26.857142857142893  10.5 26.857142857142893  C 9.25 26.857142857142893  8.1875 26.367559523809476  7.3125 25.388392857142893  C 6.4375 24.409226190476176  6 23.22023809523816  6 21.821428571428555  C 6 20.42261904761908  6.4375 19.23363095238092  7.3125 18.25446428571435  C 8.1875 17.275297619047635  9.25 16.78571428571435  10.5 16.78571428571435  C 11.75 16.78571428571435  12.8125 17.275297619047635  13.6875 18.25446428571435  C 14.5625 19.23363095238092  15 20.42261904761908  15 21.821428571428555  C 15 23.22023809523816  14.5625 24.409226190476176  13.6875 25.388392857142893  Z " fill-rule="nonzero" fill="#999999" stroke="none" fill-opacity="0.6274509803921569" transform="matrix(1 0 0 1 71 60 )" />
  </g>
</svg>