<?xml version="1.0" encoding="utf-8"?>
<svg version="1.1" xmlns:xlink="http://www.w3.org/1999/xlink" width="33px" height="22px" xmlns="http://www.w3.org/2000/svg">
  <g transform="matrix(1 0 0 1 -264 -259 )">
    <path d="M 33 4.878260869565219  C 33 5.25378421900161  32.87034739454094 5.576167471819645  32.61104218362283 5.845410628019323  L 17.4212158808933 21.596135265700482  C 17.16191066997519 21.86537842190016  16.85483870967742 22  16.5 22  C 16.145161290322584 22  15.838089330024816 21.86537842190016  15.578784119106698 21.596135265700482  L 0.3889578163771712 5.845410628019323  C 0.12965260545905727 5.576167471819645  0 5.25378421900161  0 4.878260869565219  C 0 4.502737520128822  0.12965260545905727 4.180354267310788  0.3889578163771712 3.911111111111112  L 3.787220843672457 0.40386473429951675  C 4.046526054590571 0.1346215780998381  4.353598014888338 0  4.708436724565757 0  C 5.063275434243177 0  5.370347394540945 0.1346215780998381  5.629652605459057 0.40386473429951675  L 16.5 11.690821256038646  L 27.370347394540943 0.40386473429951675  C 27.62965260545906 0.1346215780998381  27.936724565756826 0  28.291563275434246 0  C 28.646401985111666 0  28.95347394540943 0.1346215780998381  29.212779156327542 0.40386473429951675  L 32.61104218362283 3.911111111111112  C 32.87034739454094 4.180354267310788  33 4.502737520128822  33 4.878260869565219  Z " fill-rule="nonzero" fill="#d7d7d7" stroke="none" transform="matrix(1 0 0 1 264 259 )" />
  </g>
</svg>