<?xml version="1.0" encoding="utf-8"?>
<svg version="1.1" xmlns:xlink="http://www.w3.org/1999/xlink" width="18px" height="10px" xmlns="http://www.w3.org/2000/svg">
  <g transform="matrix(1 0 0 1 -1363 -161 )">
    <path d="M 17.666015625 0.3298611111111116  C 17.888671875 0.5497685185185164  18 0.8101851851851827  18 1.1111111111111116  C 18 1.412037037037036  17.888671875 1.6724537037037024  17.666015625 1.8923611111111116  L 9.791015625 9.67013888888889  C 9.568359375 9.890046296296294  9.3046875 10  9 10  C 8.695312500000002 10  8.431640625000002 9.890046296296294  8.208984375 9.67013888888889  L 0.333984375 1.8923611111111116  C 0.111328125 1.6724537037037024  0 1.412037037037036  0 1.1111111111111116  C 0 0.8101851851851827  0.111328125 0.5497685185185164  0.333984375 0.3298611111111116  C 0.556640625 0.10995370370370239  0.8203125000000001 0  1.125 0  L 16.875 0  C 17.1796875 0  17.443359375 0.10995370370370239  17.666015625 0.3298611111111116  Z " fill-rule="nonzero" fill="#000000" stroke="none" transform="matrix(1 0 0 1 1363 161 )" />
  </g>
</svg>