<?xml version="1.0" encoding="utf-8"?>
<svg version="1.1" xmlns:xlink="http://www.w3.org/1999/xlink" width="46px" height="21px" xmlns="http://www.w3.org/2000/svg">
  <g transform="matrix(1 0 0 1 -1807 -387 )">
    <path d="M 45.53907815631263 2.164948453608247  C 45.846359385437545 2.4054982817869353  46 2.6821305841924374  46 2.994845360824743  C 46 3.3075601374570422  45.846359385437545 3.5841924398625395  45.53907815631263 3.8247422680412377  L 24.06012024048096 20.639175257731956  C 23.75283901135605 20.879725085910646  23.399465597862395 21  23 21  C 22.600534402137612 21  22.24716098864396 20.879725085910646  21.939879759519037 20.639175257731956  L 0.4609218436873747 3.8247422680412377  C 0.1536406145624587 3.5841924398625395  0 3.3075601374570422  0 2.994845360824743  C 0 2.6821305841924374  0.1536406145624587 2.4054982817869353  0.4609218436873747 2.164948453608247  L 2.7655310621242486 0.3608247422680423  C 3.072812291249166 0.12027491408934432  3.4261857047428195 0  3.8256513026052104 0  C 4.225116900467603 0  4.5784903139612565 0.12027491408934432  4.885771543086172 0.3608247422680423  L 23 14.541237113402062  L 41.11422845691383 0.3608247422680423  C 41.421509686038746 0.12027491408934432  41.7748830995324 0  42.17434869739479 0  C 42.573814295257186 0  42.92718770875084 0.12027491408934432  43.234468937875754 0.3608247422680423  L 45.53907815631263 2.164948453608247  Z " fill-rule="nonzero" fill="#333333" stroke="none" transform="matrix(1 0 0 1 1807 387 )" />
  </g>
</svg>