<?xml version="1.0" encoding="utf-8"?>
<svg version="1.1" xmlns:xlink="http://www.w3.org/1999/xlink" width="20px" height="9px" xmlns="http://www.w3.org/2000/svg">
  <g transform="matrix(1 0 0 1 -726 -1510 )">
    <path d="M 19.62890625 0.29687500000000044  C 19.876302083333336 0.49479166666666474  20 0.7291666666666644  20 1.0000000000000004  C 20 1.2708333333333326  19.876302083333336 1.5052083333333321  19.62890625 1.7031250000000004  L 10.87890625 8.703125  C 10.631510416666668 8.901041666666664  10.338541666666668 9  10 9  C 9.661458333333336 9  9.368489583333336 8.901041666666664  9.12109375 8.703125  L 0.37109375 1.7031250000000004  C 0.12369791666666666 1.5052083333333321  0 1.2708333333333326  0 1.0000000000000004  C 0 0.7291666666666644  0.12369791666666666 0.49479166666666474  0.37109375 0.29687500000000044  C 0.6184895833333334 0.09895833333333215  0.9114583333333335 0  1.25 0  L 18.75 0  C 19.088541666666668 0  19.381510416666668 0.09895833333333215  19.62890625 0.29687500000000044  Z " fill-rule="nonzero" fill="#7f7f7f" stroke="none" transform="matrix(1 0 0 1 726 1510 )" />
  </g>
</svg>