<?xml version="1.0" encoding="utf-8"?>
<svg version="1.1" xmlns:xlink="http://www.w3.org/1999/xlink" width="28px" height="28px" xmlns="http://www.w3.org/2000/svg">
  <g transform="matrix(1 0 0 1 -1529 -38 )">
    <path d="M 27.703125 9.2925  C 27.901041666666668 9.514166666666664  28 9.776666666666666  28 10.08  C 28 10.383333333333331  27.901041666666668 10.645833333333332  27.703125 10.867500000000001  L 19.703125 19.8275  C 19.505208333333336 20.049166666666665  19.270833333333336 20.16  19 20.16  C 18.729166666666668 20.16  18.494791666666668 20.049166666666665  18.296875 19.8275  C 18.098958333333336 19.605833333333333  18 19.343333333333334  18 19.04  L 18 14.56  L 14.500000000000002 14.56  C 13.479166666666668 14.56  12.565104166666668 14.594999999999999  11.7578125 14.665  C 10.950520833333334 14.735  10.1484375 14.860416666666667  9.3515625 15.041249999999998  C 8.5546875 15.222083333333332  7.861979166666668 15.469999999999999  7.2734375 15.785  C 6.684895833333334 16.099999999999998  6.135416666666667 16.505416666666665  5.625 17.00125  C 5.114583333333334 17.49708333333333  4.697916666666667 18.08625  4.375 18.76875  C 4.052083333333334 19.45125  3.799479166666667 20.259166666666662  3.6171875 21.1925  C 3.4348958333333335 22.125833333333333  3.34375 23.18166666666667  3.34375 24.36  C 3.34375 25.00166666666667  3.369791666666667 25.719166666666666  3.421875 26.5125  C 3.4218750000000004 26.5825  3.434895833333334 26.719583333333333  3.4609375 26.92375  C 3.486979166666667 27.127916666666668  3.5 27.2825  3.5 27.3875  C 3.5 27.5625  3.455729166666667 27.708333333333332  3.3671875 27.825  C 3.278645833333334 27.941666666666666  3.1562500000000004 28  3 28  C 2.8333333333333335 28  2.6875 27.900833333333335  2.5625 27.7025  C 2.4895833333333335 27.5975  2.421875 27.469166666666666  2.359375 27.3175  C 2.296875 27.16583333333333  2.2265625 26.99083333333333  2.1484375 26.7925  C 2.0703125 26.594166666666666  2.015625 26.454166666666666  1.984375 26.372500000000002  C 0.6614583333333333 23.0475  0 20.416666666666664  0 18.479999999999997  C 0 16.15833333333333  0.27604166666666663 14.215833333333329  0.828125 12.6525  C 2.515625 7.950833333333333  7.072916666666666 5.599999999999999  14.500000000000002 5.599999999999999  L 18 5.599999999999999  L 18 1.120000000000001  C 18 0.8166666666666638  18.098958333333336 0.5541666666666631  18.296875 0.33249999999999913  C 18.494791666666668 0.11083333333333201  18.729166666666668 0  19 0  C 19.270833333333336 0  19.505208333333336 0.11083333333333201  19.703125 0.33249999999999913  L 27.703125 9.2925  Z " fill-rule="nonzero" fill="#000000" stroke="none" transform="matrix(1 0 0 1 1529 38 )" />
  </g>
</svg>