<?xml version="1.0" encoding="utf-8"?>
<svg version="1.1" xmlns:xlink="http://www.w3.org/1999/xlink" width="28px" height="28px" xmlns="http://www.w3.org/2000/svg">
  <g transform="matrix(1 0 0 1 -1611 -38 )">
    <path d="M 27.37109375 16.506510416666668  C 27.48654513888889 16.621961805555557  27.544270833333336 16.758680555555557  27.544270833333336 16.916666666666668  C 27.544270833333336 16.977430555555557  27.538194444444446 17.019965277777775  27.526041666666664 17.044270833333332  C 26.74826388888889 20.301215277777775  25.119791666666664 22.94140625  22.640625 24.96484375  C 20.161458333333336 26.98828125  17.256944444444446 28  13.927083333333332 28  C 12.15277777777778 28  10.436197916666668 27.665798611111114  8.77734375 26.997395833333336  C 7.118489583333333 26.328993055555554  5.63888888888889 25.375  4.338541666666666 24.135416666666664  L 1.9869791666666667 26.486979166666664  C 1.756076388888889 26.717881944444446  1.482638888888889 26.833333333333336  1.1666666666666665 26.833333333333336  C 0.8506944444444445 26.833333333333336  0.5772569444444444 26.717881944444446  0.34635416666666663 26.486979166666664  C 0.1154513888888889 26.256076388888886  0 25.982638888888886  0 25.666666666666664  L 0 17.5  C 0 17.184027777777775  0.1154513888888889 16.910590277777775  0.34635416666666663 16.6796875  C 0.5772569444444444 16.448784722222218  0.8506944444444445 16.333333333333332  1.1666666666666665 16.333333333333332  L 9.333333333333332 16.333333333333332  C 9.649305555555557 16.333333333333332  9.922743055555557 16.448784722222218  10.153645833333332 16.6796875  C 10.384548611111112 16.910590277777775  10.5 17.184027777777775  10.5 17.5  C 10.5 17.815972222222218  10.384548611111112 18.089409722222218  10.153645833333332 18.3203125  L 7.65625 20.817708333333332  C 8.519097222222223 21.619791666666664  9.497395833333332 22.239583333333336  10.591145833333332 22.677083333333336  C 11.684895833333332 23.114583333333336  12.821180555555557 23.333333333333336  14 23.333333333333336  C 15.628472222222221 23.333333333333336  17.147569444444446 22.938368055555554  18.557291666666664 22.1484375  C 19.96701388888889 21.35850694444444  21.097222222222225 20.270833333333332  21.947916666666664 18.885416666666668  C 22.081597222222225 18.678819444444443  22.403645833333336 17.967881944444443  22.9140625 16.752604166666668  C 23.011284722222225 16.473090277777775  23.19357638888889 16.333333333333332  23.4609375 16.333333333333332  L 26.9609375 16.333333333333332  C 27.118923611111114 16.333333333333332  27.255642361111114 16.391059027777775  27.37109375 16.506510416666668  Z M 27.653645833333336 1.5130208333333344  C 27.88454861111111 1.7439236111111094  28 2.0173611111111094  28 2.3333333333333344  L 28 10.5  C 28 10.815972222222221  27.88454861111111 11.089409722222221  27.653645833333336 11.3203125  C 27.42274305555556 11.551215277777779  27.14930555555556 11.666666666666666  26.833333333333336 11.666666666666666  L 18.666666666666664 11.666666666666666  C 18.350694444444446 11.666666666666666  18.077256944444446 11.551215277777779  17.846354166666664 11.3203125  C 17.61545138888889 11.089409722222221  17.500000000000004 10.815972222222221  17.5 10.5  C 17.500000000000004 10.184027777777775  17.61545138888889 9.910590277777775  17.846354166666664 9.6796875  L 20.361979166666664 7.1640625  C 18.56336805555556 5.499131944444441  16.442708333333336 4.666666666666666  14 4.666666666666666  C 12.37152777777778 4.666666666666666  10.852430555555557 5.061631944444441  9.442708333333332 5.8515625  C 8.032986111111112 6.641493055555554  6.902777777777779 7.729166666666666  6.052083333333334 9.114583333333334  C 5.918402777777779 9.321180555555554  5.596354166666666 10.032118055555554  5.0859375 11.247395833333334  C 4.988715277777779 11.526909722222221  4.806423611111112 11.666666666666666  4.5390625 11.666666666666666  L 0.9114583333333334 11.666666666666666  C 0.7534722222222222 11.666666666666666  0.6167534722222223 11.608940972222221  0.5013020833333333 11.493489583333334  C 0.3858506944444445 11.378038194444443  0.328125 11.241319444444443  0.328125 11.083333333333334  L 0.328125 10.955729166666666  C 1.1180555555555556 7.698784722222221  2.758680555555556 5.05859375  5.25 3.03515625  C 7.7413194444444455 1.01171875  10.657986111111112 0  14 0  C 15.774305555555557 0  17.5 0.33723958333333437  19.177083333333336 1.01171875  C 20.854166666666664 1.6861979166666656  22.342881944444446 2.637152777777775  23.643229166666664 3.8645833333333344  L 26.013020833333336 1.5130208333333344  C 26.243923611111114 1.2821180555555531  26.517361111111114 1.1666666666666656  26.833333333333336 1.1666666666666656  C 27.14930555555556 1.1666666666666656  27.42274305555556 1.2821180555555531  27.653645833333336 1.5130208333333344  Z " fill-rule="nonzero" fill="#000000" stroke="none" transform="matrix(1 0 0 1 1611 38 )" />
  </g>
</svg>