<?xml version="1.0" encoding="utf-8"?>
<svg version="1.1" xmlns:xlink="http://www.w3.org/1999/xlink" width="28px" height="28px" xmlns="http://www.w3.org/2000/svg">
  <g transform="matrix(1 0 0 1 -1761 -38 )">
    <path d="M 16.010817307692307 7.187500000000001  C 16.868990384615383 7.979166666666664  17.298076923076923 8.9375  17.298076923076923 10.0625  C 17.298076923076923 11.177083333333332  16.868990384615383 12.130208333333332  16.010817307692307 12.921875  C 15.152644230769232 13.713541666666666  14.123397435897438 14.109375  12.923076923076923 14.109375  C 11.722756410256412 14.109375  10.693509615384617 13.713541666666666  9.835336538461538 12.921875  C 8.977163461538462 12.130208333333332  8.548076923076923 11.177083333333332  8.548076923076923 10.0625  C 8.548076923076923 8.9375  8.977163461538462 7.979166666666664  9.835336538461538 7.187500000000001  C 10.693509615384617 6.39583333333333  11.722756410256412 6  12.923076923076923 6  C 14.123397435897438 6  15.152644230769232 6.39583333333333  16.010817307692307 7.187500000000001  Z M 15.951923076923077 13.8046875  C 16.232371794871796 13.643229166666668  16.411858974358974 13.541666666666664  16.490384615384617 13.499999999999998  C 17.00641025641026 13.499999999999998  17.469150641025642 13.588541666666668  17.878605769230766 13.765625  C 18.2880608974359 13.94270833333333  18.62459935897436 14.190104166666668  18.888221153846153 14.5078125  C 19.15184294871795 14.825520833333332  19.373397435897438 15.174479166666668  19.552884615384617 15.5546875  C 19.732371794871796 15.934895833333332  19.866987179487182 16.356770833333332  19.956730769230766 16.8203125  C 20.04647435897436 17.283854166666664  20.110977564102566 17.713541666666664  20.150240384615383 18.109375  C 20.189503205128208 18.505208333333332  20.209134615384617 18.916666666666664  20.209134615384617 19.34375  C 20.209134615384617 20.041666666666664  19.98758012820513 20.658854166666664  19.544471153846153 21.1953125  C 19.101362179487182 21.731770833333332  18.509615384615383 22  17.769230769230766 22  L 8.076923076923077 22  C 7.336538461538462 22  6.744791666666667 21.731770833333332  6.301682692307692 21.1953125  C 5.858573717948719 20.658854166666664  5.637019230769231 20.041666666666664  5.637019230769231 19.34375  C 5.637019230769231 18.84375  5.662259615384615 18.356770833333332  5.712740384615385 17.8828125  C 5.763221153846154 17.408854166666664  5.86698717948718 16.895833333333336  6.024038461538462 16.34375  C 6.1810897435897445 15.791666666666666  6.385817307692308 15.315104166666666  6.638221153846154 14.9140625  C 6.890625000000001 14.513020833333332  7.243990384615386 14.17708333333333  7.698317307692308 13.90625  C 8.152644230769232 13.635416666666666  8.677083333333334 13.499999999999998  9.271634615384617 13.499999999999998  L 9.35576923076923 13.499999999999998  C 9.434294871794872 13.541666666666664  9.613782051282051 13.643229166666668  9.89423076923077 13.8046875  C 10.174679487179489 13.966145833333332  10.373798076923077 14.075520833333332  10.491586538461538 14.1328125  C 10.609375 14.190104166666668  10.794471153846153 14.278645833333332  11.046875 14.3984375  C 11.299278846153847 14.518229166666668  11.506810897435898 14.6015625  11.669471153846153 14.648437500000002  C 11.832131410256412 14.6953125  12.028445512820513 14.7421875  12.258413461538462 14.7890625  C 12.488381410256412 14.8359375  12.709935897435898 14.859375  12.923076923076923 14.859375  C 13.13621794871795 14.859375  13.357772435897438 14.8359375  13.587740384615383 14.7890625  C 13.817708333333334 14.7421875  14.014022435897438 14.6953125  14.176682692307692 14.648437500000002  C 14.33934294871795 14.6015625  14.546875 14.518229166666668  14.799278846153847 14.3984375  C 15.051682692307692 14.278645833333332  15.236778846153847 14.190104166666668  15.354567307692308 14.1328125  C 15.472355769230768 14.075520833333332  15.671474358974361 13.966145833333332  15.951923076923077 13.8046875  Z M 28 6.499999999999998  L 28 9.5  C 28 9.635416666666664  27.946714743589745 9.752604166666666  27.840144230769234 9.851562500000002  C 27.73357371794872 9.95052083333333  27.607371794871796 9.999999999999998  27.46153846153846 9.999999999999998  L 25.846153846153847 9.999999999999998  L 25.846153846153847 12  L 27.46153846153846 12  C 27.607371794871796 12  27.73357371794872 12.049479166666668  27.840144230769234 12.148437500000002  C 27.946714743589745 12.24739583333333  28 12.364583333333332  28 12.5  L 28 15.5  C 28 15.635416666666668  27.946714743589745 15.752604166666666  27.840144230769234 15.851562500000002  C 27.73357371794872 15.950520833333332  27.607371794871796 16  27.46153846153846 16  L 25.846153846153847 16  L 25.846153846153847 18  L 27.46153846153846 18  C 27.607371794871796 18  27.73357371794872 18.049479166666664  27.840144230769234 18.1484375  C 27.946714743589745 18.247395833333332  28 18.364583333333332  28 18.5  L 28 21.5  C 28 21.635416666666668  27.946714743589745 21.75260416666667  27.840144230769234 21.8515625  C 27.73357371794872 21.950520833333332  27.607371794871796 22  27.46153846153846 22  L 25.846153846153847 22  L 25.846153846153847 25.5  C 25.846153846153847 26.1875  25.58253205128205 26.776041666666668  25.05528846153846 27.265625  C 24.528044871794876 27.755208333333332  23.894230769230766 28  23.153846153846153 28  L 2.6923076923076925 28  C 1.951923076923077 28  1.3181089743589745 27.755208333333332  0.7908653846153846 27.265625  C 0.2636217948717949 26.776041666666668  0 26.1875  0 25.5  L 0 2.5000000000000004  C 0 1.8125000000000013  0.2636217948717949 1.2239583333333317  0.7908653846153846 0.7343750000000009  C 1.3181089743589745 0.24479166666666696  1.951923076923077 0  2.6923076923076925 0  L 23.153846153846153 0  C 23.894230769230766 0  24.528044871794876 0.24479166666666696  25.05528846153846 0.7343750000000009  C 25.58253205128205 1.2239583333333317  25.846153846153847 1.8125000000000013  25.846153846153847 2.5000000000000004  L 25.846153846153847 6  L 27.46153846153846 6  C 27.607371794871796 6  27.73357371794872 6.049479166666665  27.840144230769234 6.148437500000001  C 27.946714743589745 6.247395833333334  28 6.364583333333332  28 6.499999999999998  Z M 23.532451923076923 25.8515625  C 23.639022435897438 25.752604166666668  23.692307692307693 25.635416666666668  23.692307692307693 25.5  L 23.692307692307693 2.5000000000000004  C 23.692307692307693 2.3645833333333335  23.639022435897438 2.247395833333332  23.532451923076923 2.1484374999999996  C 23.42588141025641 2.049479166666664  23.29967948717949 1.9999999999999991  23.153846153846153 2  L 2.6923076923076925 2  C 2.5464743589743595 1.9999999999999991  2.420272435897436 2.049479166666664  2.313701923076923 2.1484374999999996  C 2.2071314102564106 2.247395833333332  2.153846153846154 2.3645833333333335  2.153846153846154 2.5000000000000004  L 2.153846153846154 25.5  C 2.153846153846154 25.635416666666668  2.2071314102564106 25.752604166666668  2.313701923076923 25.8515625  C 2.420272435897436 25.950520833333332  2.5464743589743595 26  2.6923076923076925 26  L 23.153846153846153 26  C 23.29967948717949 26  23.42588141025641 25.950520833333332  23.532451923076923 25.8515625  Z " fill-rule="nonzero" fill="#000000" stroke="none" transform="matrix(1 0 0 1 1761 38 )" />
  </g>
</svg>