<?xml version="1.0" encoding="utf-8"?>
<svg version="1.1" xmlns:xlink="http://www.w3.org/1999/xlink" width="28px" height="15px" xmlns="http://www.w3.org/2000/svg">
  <g transform="matrix(1 0 0 1 -1880 -45 )">
    <path d="M 27.71943887775551 1.546391752577319  C 27.906479625918504 1.7182130584192397  28 1.9158075601374551  28 2.1391752577319596  C 28 2.3625429553264587  27.906479625918504 2.560137457044671  27.71943887775551 2.731958762886598  L 14.645290581162325 14.742268041237113  C 14.458249832999332 14.914089347079033  14.243152972611892 15  14 15  C 13.756847027388112 15  13.54175016700067 14.914089347079033  13.354709418837675 14.742268041237113  L 0.280561122244489 2.731958762886598  C 0.0935203740814966 2.560137457044671  0 2.3625429553264587  0 2.1391752577319596  C 0 1.9158075601374551  0.0935203740814966 1.7182130584192397  0.280561122244489 1.546391752577319  L 1.6833667334669338 0.25773195876288735  C 1.8704074816299272 0.08591065292096023  2.0855043420173685 0  2.3286573146292584 0  C 2.5718102872411492 0  2.7869071476285905 0.08591065292096023  2.973947895791583 0.25773195876288735  L 14 10.38659793814433  L 25.026052104208418 0.25773195876288735  C 25.21309285237141 0.08591065292096023  25.42818971275885 0  25.67134268537074 0  C 25.914495657982634 0  26.129592518370078 0.08591065292096023  26.316633266533067 0.25773195876288735  L 27.71943887775551 1.546391752577319  Z " fill-rule="nonzero" fill="#000000" stroke="none" transform="matrix(1 0 0 1 1880 45 )" />
  </g>
</svg>