<?xml version="1.0" encoding="utf-8"?>
<svg version="1.1" xmlns:xlink="http://www.w3.org/1999/xlink" width="25px" height="17px" xmlns="http://www.w3.org/2000/svg">
  <g transform="matrix(1 0 0 1 -323 -311 )">
    <path d="M 24.548387096774192 2.3468013468013473  C 24.8494623655914 2.61391694725028  25.000000000000007 2.9382716049382713  25 3.31986531986532  C 25.000000000000007 3.701459034792366  24.8494623655914 4.025813692480358  24.548387096774192 4.292929292929292  L 12.870967741935486 14.653198653198652  L 10.67741935483871 16.5993265993266  C 10.376344086021506 16.866442199775534  10.010752688172046 17  9.580645161290322 17  C 9.150537634408602 17  8.78494623655914 16.866442199775534  8.483870967741936 16.5993265993266  L 6.290322580645161 14.653198653198652  L 0.4516129032258065 9.473063973063974  C 0.1505376344086023 9.205948372615039  0 8.881593714927046  0 8.5  C 0 8.118406285072952  0.1505376344086023 7.7940516273849605  0.4516129032258065 7.526936026936028  L 2.6451612903225805 5.580808080808081  C 2.946236559139785 5.313692480359147  3.311827956989248 5.180134680134678  3.741935483870968 5.18013468013468  C 4.172043010752689 5.180134680134678  4.537634408602151 5.313692480359147  4.838709677419355 5.580808080808081  L 9.580645161290322 9.802188552188552  L 20.161290322580644 0.40067340067340074  C 20.46236559139785 0.13355780022446628  20.827956989247316 0  21.258064516129032 0  C 21.688172043010752 0  22.053763440860216 0.13355780022446628  22.35483870967742 0.40067340067340074  L 24.548387096774192 2.3468013468013473  Z " fill-rule="nonzero" fill="#00fb7a" stroke="none" transform="matrix(1 0 0 1 323 311 )" />
  </g>
</svg>