<?xml version="1.0" encoding="utf-8"?>
<svg version="1.1" xmlns:xlink="http://www.w3.org/1999/xlink" width="21px" height="23px" xmlns="http://www.w3.org/2000/svg">
  <g transform="matrix(1 0 0 1 -85 -374 )">
    <path d="M 20.582386363636363 8.821022727272728  C 20.860795454545457 9.125946969696965  21 9.496212121212121  21 9.93181818181818  L 21 13.068181818181817  C 21 13.503787878787879  20.860795454545457 13.87405303030303  20.582386363636363 14.178977272727272  C 20.303977272727273 14.483901515151514  19.965909090909093 14.636363636363637  19.568181818181817 14.636363636363637  L 13.363636363636363 14.636363636363637  L 13.363636363636363 21.431818181818183  C 13.363636363636363 21.867424242424242  13.224431818181818 22.23768939393939  12.946022727272727 22.542613636363637  C 12.66761363636364 22.84753787878788  12.329545454545455 23  11.931818181818183 23  L 9.068181818181818 23  C 8.670454545454547 23  8.332386363636365 22.84753787878788  8.053977272727273 22.542613636363637  C 7.7755681818181825 22.23768939393939  7.636363636363637 21.867424242424242  7.636363636363637 21.431818181818183  L 7.636363636363637 14.636363636363637  L 1.4318181818181817 14.636363636363637  C 1.0340909090909092 14.636363636363637  0.6960227272727274 14.483901515151514  0.41761363636363635 14.178977272727272  C 0.13920454545454544 13.87405303030303  0 13.503787878787879  0 13.068181818181817  L 0 9.93181818181818  C 0 9.496212121212121  0.13920454545454544 9.125946969696965  0.41761363636363635 8.821022727272728  C 0.6960227272727274 8.516098484848484  1.0340909090909092 8.363636363636363  1.4318181818181817 8.363636363636363  L 7.636363636363637 8.363636363636363  L 7.636363636363637 1.5681818181818192  C 7.636363636363637 1.1325757575757565  7.7755681818181825 0.7623106060606047  8.053977272727273 0.45738636363636387  C 8.332386363636365 0.15246212121212044  8.670454545454547 0  9.068181818181818 0  L 11.931818181818183 0  C 12.329545454545455 0  12.66761363636364 0.15246212121212044  12.946022727272727 0.45738636363636387  C 13.224431818181818 0.7623106060606047  13.363636363636363 1.1325757575757565  13.363636363636363 1.5681818181818192  L 13.363636363636363 8.363636363636363  L 19.568181818181817 8.363636363636363  C 19.965909090909093 8.363636363636363  20.303977272727273 8.516098484848484  20.582386363636363 8.821022727272728  Z " fill-rule="nonzero" fill="#333333" stroke="none" transform="matrix(1 0 0 1 85 374 )" />
  </g>
</svg>