<?xml version="1.0" encoding="utf-8"?>
<svg version="1.1" xmlns:xlink="http://www.w3.org/1999/xlink" width="15px" height="14px" xmlns="http://www.w3.org/2000/svg">
  <g transform="matrix(1 0 0 1 -124 -14 )">
    <path d="M 14.23469387755102 2.798177083333333  C 14.462785114045621 2.889322916666667  14.63985594237695 3.019965277777777  14.765906362545017 3.190104166666667  C 15.006002400960384 3.536458333333333  15.060024009603842 3.928385416666667  14.92797118847539 4.365885416666667  L 12.451980792316927 12.623697916666668  C 12.33793517406963 13.012586805555557  12.108343337334935 13.339192708333332  11.763205282112846 13.603515625  C 11.418067226890757 13.867838541666668  11.050420168067227 14  10.660264105642257 14  L 2.349939975990396 14  C 1.8877551020408163 14  1.442076830732293 13.837456597222223  1.012905162064826 13.512369791666668  C 0.583733493397359 13.18728298611111  0.2851140456182473 12.787760416666668  0.117046818727491 12.313802083333332  C -0.02701080432172869 11.906684027777777  -0.03301320528211285 11.520833333333332  0.09903961584633854 11.15625  C 0.09903961584633854 11.131944444444443  0.10804321728691477 11.049913194444443  0.12605042016806722 10.91015625  C 0.14405762304921968 10.770399305555555  0.156062424969988 10.65798611111111  0.16206482593037216 10.572916666666668  C 0.16806722689075632 10.524305555555557  0.15906362545018007 10.458984375  0.13505402160864344 10.376953125  C 0.11104441776710686 10.294921875  0.10204081632653061 10.235677083333334  0.10804321728691477 10.19921875  C 0.12004801920768307 10.132378472222221  0.14405762304921968 10.068576388888888  0.18007202881152462 10.0078125  C 0.21608643457382953 9.947048611111109  0.26560624249699877 9.875651041666666  0.32863145258103243 9.793619791666666  C 0.39165666266506605 9.711588541666666  0.4411764705882353 9.640190972222221  0.4771908763505402 9.579427083333334  C 0.6152460984393758 9.348524305555554  0.7503001200480193 9.070529513888888  0.8823529411764706 8.745442708333334  C 1.014405762304922 8.420355902777779  1.1044417767106842 8.142361111111109  1.1524609843937574 7.911458333333334  C 1.1704681872749099 7.850694444444444  1.171968787515006 7.759548611111109  1.1569627851140456 7.638020833333334  C 1.1419567827130854 7.516493055555556  1.140456182472989 7.431423611111109  1.1524609843937574 7.3828125  C 1.1704681872749099 7.315972222222221  1.2214885954381756 7.230902777777779  1.3055222088835534 7.127604166666666  C 1.3895558223289315 7.024305555555556  1.440576230492197 6.954427083333333  1.4585834333733494 6.91796875  C 1.5846338535414166 6.69921875  1.7106842737094838 6.419704861111111  1.836734693877551 6.079427083333333  C 1.962785114045618 5.7391493055555545  2.0378151260504205 5.4657118055555545  2.0618247298919568 5.259114583333333  C 2.067827130852341 5.204427083333333  2.060324129651861 5.107204861111111  2.0393157262905164 4.967447916666667  C 2.018307322929172 4.827690972222221  2.019807923169268 4.742621527777777  2.0438175270108045 4.712239583333333  C 2.067827130852341 4.633246527777777  2.133853541416567 4.5405815972222205  2.2418967587034815 4.434244791666667  C 2.349939975990396 4.327907986111111  2.415966386554622 4.259548611111111  2.4399759903961584 4.229166666666667  C 2.5540216086434575 4.0711805555555545  2.681572629051621 3.814453125  2.8226290516206483 3.458984375  C 2.963685474189676 3.103515625  3.0462184873949583 2.8103298611111107  3.0702280912364945 2.579427083333333  C 3.076230492196879 2.5308159722222205  3.0672268907563027 2.4533420138888875  3.043217286914766 2.347005208333333  C 3.0192076830732297 2.240668402777777  3.0132052821128457 2.16015625  3.0252100840336134 2.10546875  C 3.037214885954382 2.0568576388888875  3.064225690276111 2.0021701388888875  3.1062424969987994 1.94140625  C 3.1482593037214888 1.880642361111111  3.2022809123649463 1.8107638888888875  3.2683073229291715 1.7317708333333328  C 3.3343337334933976 1.6527777777777766  3.385354141656663 1.5889756944444438  3.4213685474189677 1.5403645833333328  C 3.4693877551020416 1.4674479166666672  3.5189075630252105 1.374782986111111  3.5699279711884753 1.2623697916666672  C 3.620948379351741 1.1499565972222203  3.665966386554622 1.0436197916666672  3.704981992797119 0.943359375  C 3.743997599039616 0.8430989583333328  3.79201680672269 0.7337239583333328  3.8490396158463382 0.615234375  C 3.9060624249699885 0.4967447916666672  3.9645858343337337 0.39952256944444375  4.024609843937575 0.3235677083333328  C 4.084633853541417 0.24761284722222032  4.1641656662665065 0.17621527777777657  4.263205282112845 0.109375  C 4.362244897959185 0.04253472222222032  4.470288115246099 0.007595486111110938  4.587334933973589 0.004557291666667185  C 4.704381752701081 0.0015190972222203225  4.846938775510204 0.018229166666667185  5.01500600240096 0.0546875  L 5.0060024009603845 0.08203125  C 5.234093637454982 0.02734375  5.387154861944778 0  5.465186074429772 0  L 12.316926770708283 0  C 12.761104441776713 0  13.103241296518608 0.1701388888888875  13.343337334933974 0.5104166666666672  C 13.583433373349342 0.8506944444444438  13.637454981992798 1.2456597222222203  13.505402160864346 1.6953125  L 11.038415366146458 9.953125  C 10.822328931572628 10.676215277777777  10.607743097238897 11.142578125  10.394657863145259 11.352213541666668  C 10.181572629051622 11.561848958333332  9.795918367346937 11.666666666666668  9.237695078031212 11.666666666666668  L 1.4135654261704682 11.666666666666668  C 1.2515006002400961 11.666666666666668  1.1374549819927973 11.712239583333332  1.0714285714285714 11.803385416666668  C 1.0054021608643458 11.90060763888889  1.0024009603841537 12.03125  1.062424969987995 12.1953125  C 1.2064825930372147 12.620659722222223  1.638655462184874 12.833333333333332  2.3589435774309724 12.833333333333332  L 10.669267707082833 12.833333333333332  C 10.843337334933974 12.833333333333332  11.01140456182473 12.786241319444443  11.173469387755103 12.692057291666668  C 11.335534213685474 12.59787326388889  11.440576230492198 12.471788194444443  11.48859543817527 12.313802083333332  L 14.18967587034814 3.317708333333333  C 14.23169267707083 3.184027777777777  14.24669867947179 3.0108506944444438  14.23469387755102 2.798177083333333  Z M 5.375150060024009 2.625  L 5.186074429771909 3.208333333333333  C 5.162064825930372 3.2873263888888875  5.168067226890757 3.3556857638888875  5.204081632653061 3.413411458333333  C 5.240096038415366 3.471137152777777  5.300120048019209 3.5  5.384153661464586 3.5  L 10.858343337334935 3.5  C 10.936374549819929 3.5  11.012905162064826 3.471137152777777  11.087935174069628 3.413411458333333  C 11.16296518607443 3.3556857638888875  11.2124849939976 3.2873263888888875  11.236494597839137 3.208333333333333  L 11.425570228091237 2.625  C 11.449579831932773 2.5460069444444438  11.44357743097239 2.4776475694444438  11.407563025210084 2.419921875  C 11.371548619447779 2.3621961805555545  11.31152460984394 2.333333333333333  11.22749099639856 2.333333333333333  L 5.7533013205282115 2.333333333333333  C 5.675270108043217 2.333333333333333  5.59873949579832 2.3621961805555545  5.5237094837935174 2.419921875  C 5.448679471788716 2.4776475694444438  5.399159663865547 2.5460069444444438  5.375150060024009 2.625  Z M 4.627851140456182 4.958333333333333  L 4.438775510204081 5.541666666666667  C 4.414765906362545 5.620659722222221  4.42076830732293 5.689019097222221  4.456782713085234 5.746744791666667  C 4.492797118847539 5.804470486111111  4.55282112845138 5.833333333333333  4.636854741896759 5.833333333333333  L 10.111044417767106 5.833333333333333  C 10.189075630252102 5.833333333333333  10.265606242497 5.804470486111111  10.3406362545018 5.746744791666667  C 10.415666266506605 5.689019097222221  10.465186074429772 5.620659722222221  10.489195678271308 5.541666666666667  L 10.678271308523408 4.958333333333333  C 10.702280912364946 4.879340277777777  10.69627851140456 4.810980902777777  10.660264105642257 4.753255208333333  C 10.624249699879952 4.695529513888889  10.564225690276112 4.666666666666667  10.480192076830733 4.666666666666667  L 5.0060024009603845 4.666666666666667  C 4.927971188475391 4.666666666666667  4.851440576230493 4.695529513888889  4.77641056422569 4.753255208333333  C 4.701380552220889 4.810980902777777  4.65186074429772 4.879340277777777  4.627851140456182 4.958333333333333  Z " fill-rule="nonzero" fill="#aaaaaa" stroke="none" transform="matrix(1 0 0 1 124 14 )" />
  </g>
</svg>