<?xml version="1.0" encoding="utf-8"?>
<svg version="1.1" xmlns:xlink="http://www.w3.org/1999/xlink" width="40px" height="40px" xmlns="http://www.w3.org/2000/svg">
  <defs>
    <mask fill="white" id="clip108">
      <path d="M 0 15  C 0 6.600000000000023  6.599999999999994 0  15 0  C 23.400000000000006 0  30 6.600000000000023  30 15  C 30 23.399999999999977  23.400000000000006 30  15 30  C 8.382981987517326 30  2.8829264081346366 25.90447107863332  0.846169940927922 20.059749914975896  C 0.2973468023616306 18.484803695683524  0 16.782949139072855  0 15  Z " fill-rule="evenodd" />
    </mask>
    <filter x="198px" y="376px" width="40px" height="40px" filterUnits="userSpaceOnUse" id="filter109">
      <feOffset dx="1" dy="1" in="SourceAlpha" result="shadowOffsetInner" />
      <feGaussianBlur stdDeviation="2.5" in="shadowOffsetInner" result="shadowGaussian" />
      <feComposite in2="shadowGaussian" operator="atop" in="SourceAlpha" result="shadowComposite" />
      <feColorMatrix type="matrix" values="0 0 0 0 0  0 0 0 0 0  0 0 0 0 0  0 0 0 0.6980392156862745 0  " in="shadowComposite" />
    </filter>
    <g id="widget110">
      <path d="M 0 15  C 0 6.600000000000023  6.599999999999994 0  15 0  C 23.400000000000006 0  30 6.600000000000023  30 15  C 30 23.399999999999977  23.400000000000006 30  15 30  C 8.382981987517326 30  2.8829264081346366 25.90447107863332  0.846169940927922 20.059749914975896  C 0.2973468023616306 18.484803695683524  0 16.782949139072855  0 15  Z " fill-rule="nonzero" fill="#009dd9" stroke="none" transform="matrix(1 0 0 1 202 380 )" />
      <path d="M 0 15  C 0 6.600000000000023  6.599999999999994 0  15 0  C 23.400000000000006 0  30 6.600000000000023  30 15  C 30 23.399999999999977  23.400000000000006 30  15 30  C 8.382981987517326 30  2.8829264081346366 25.90447107863332  0.846169940927922 20.059749914975896  C 0.2973468023616306 18.484803695683524  0 16.782949139072855  0 15  Z " stroke-width="2" stroke="#ffffff" fill="none" transform="matrix(1 0 0 1 202 380 )" mask="url(#clip108)" />
    </g>
  </defs>
  <g transform="matrix(1 0 0 1 -198 -376 )">
    <use xlink:href="#widget110" filter="url(#filter109)" />
    <use xlink:href="#widget110" />
  </g>
</svg>