<?xml version="1.0" encoding="utf-8"?>
<svg version="1.1" xmlns:xlink="http://www.w3.org/1999/xlink" width="40px" height="40px" xmlns="http://www.w3.org/2000/svg">
  <defs>
    <mask fill="white" id="clip111">
      <path d="M 0 15  C 0 6.599999999999994  6.599999999999994 0  15 0  C 20.59442535242715 0  25.390442668530852 2.9274961331860254  27.970072849901698 7.364509301148701  C 29.26375098614602 9.589673630903889  30 12.19443922265367  30 15  C 30 20.70470739632583  26.955947693412924 25.57921870903698  22.371343314714096 28.12003370365818  C 20.20526372215906 29.320487887639217  17.695292603674176 30  15 30  C 6.599999999999994 30  0 23.400000000000006  0 15  Z " fill-rule="evenodd" />
    </mask>
    <filter x="183px" y="78px" width="40px" height="40px" filterUnits="userSpaceOnUse" id="filter112">
      <feOffset dx="1" dy="1" in="SourceAlpha" result="shadowOffsetInner" />
      <feGaussianBlur stdDeviation="2.5" in="shadowOffsetInner" result="shadowGaussian" />
      <feComposite in2="shadowGaussian" operator="atop" in="SourceAlpha" result="shadowComposite" />
      <feColorMatrix type="matrix" values="0 0 0 0 0  0 0 0 0 0  0 0 0 0 0  0 0 0 0.6980392156862745 0  " in="shadowComposite" />
    </filter>
    <g id="widget113">
      <path d="M 0 15  C 0 6.599999999999994  6.599999999999994 0  15 0  C 20.59442535242715 0  25.390442668530852 2.9274961331860254  27.970072849901698 7.364509301148701  C 29.26375098614602 9.589673630903889  30 12.19443922265367  30 15  C 30 20.70470739632583  26.955947693412924 25.57921870903698  22.371343314714096 28.12003370365818  C 20.20526372215906 29.320487887639217  17.695292603674176 30  15 30  C 6.599999999999994 30  0 23.400000000000006  0 15  Z " fill-rule="nonzero" fill="#009dd9" stroke="none" transform="matrix(1 0 0 1 187 82 )" />
      <path d="M 0 15  C 0 6.599999999999994  6.599999999999994 0  15 0  C 20.59442535242715 0  25.390442668530852 2.9274961331860254  27.970072849901698 7.364509301148701  C 29.26375098614602 9.589673630903889  30 12.19443922265367  30 15  C 30 20.70470739632583  26.955947693412924 25.57921870903698  22.371343314714096 28.12003370365818  C 20.20526372215906 29.320487887639217  17.695292603674176 30  15 30  C 6.599999999999994 30  0 23.400000000000006  0 15  Z " stroke-width="2" stroke="#ffffff" fill="none" transform="matrix(1 0 0 1 187 82 )" mask="url(#clip111)" />
    </g>
  </defs>
  <g transform="matrix(1 0 0 1 -183 -78 )">
    <use xlink:href="#widget113" filter="url(#filter112)" />
    <use xlink:href="#widget113" />
  </g>
</svg>