<?xml version="1.0" encoding="utf-8"?>
<svg version="1.1" xmlns:xlink="http://www.w3.org/1999/xlink" width="40px" height="40px" xmlns="http://www.w3.org/2000/svg">
  <defs>
    <mask fill="white" id="clip117">
      <path d="M 0 15  C 0 7.751321843660321  4.914767730919721 1.8430348866622808  11.65983830145177 0.35960402031355443  C 11.659976884584978 0.35957354266122366  12.004383590066766 0.3029935369810346  12.491820791426676 0.2347215623723287  C 12.773553510899376 0.19526492640250126  13.102263343913535 0.1520048170867767  13.439892836005413 0.11347136056951967  C 13.99247808704257 0.05040512897039662  14.568956084979789 0  15 0  C 23.399999999999977 0  30 6.600000000000023  30 15  C 30 16.99008801615207  29.629549715711278 18.879144136589048  28.952478469328014 20.603339039116804  C 26.771686936045853 26.156830883950306  21.409911983847906 30  15 30  C 6.600000000000023 30  0 23.399999999999977  0 15  Z " fill-rule="evenodd" />
    </mask>
    <filter x="362px" y="525px" width="40px" height="40px" filterUnits="userSpaceOnUse" id="filter118">
      <feOffset dx="1" dy="1" in="SourceAlpha" result="shadowOffsetInner" />
      <feGaussianBlur stdDeviation="2.5" in="shadowOffsetInner" result="shadowGaussian" />
      <feComposite in2="shadowGaussian" operator="atop" in="SourceAlpha" result="shadowComposite" />
      <feColorMatrix type="matrix" values="0 0 0 0 0  0 0 0 0 0  0 0 0 0 0  0 0 0 0.6980392156862745 0  " in="shadowComposite" />
    </filter>
    <g id="widget119">
      <path d="M 0 15  C 0 7.751321843660321  4.914767730919721 1.8430348866622808  11.65983830145177 0.35960402031355443  C 11.659976884584978 0.35957354266122366  12.004383590066766 0.3029935369810346  12.491820791426676 0.2347215623723287  C 12.773553510899376 0.19526492640250126  13.102263343913535 0.1520048170867767  13.439892836005413 0.11347136056951967  C 13.99247808704257 0.05040512897039662  14.568956084979789 0  15 0  C 23.399999999999977 0  30 6.600000000000023  30 15  C 30 16.99008801615207  29.629549715711278 18.879144136589048  28.952478469328014 20.603339039116804  C 26.771686936045853 26.156830883950306  21.409911983847906 30  15 30  C 6.600000000000023 30  0 23.399999999999977  0 15  Z " fill-rule="nonzero" fill="#009dd9" stroke="none" transform="matrix(1 0 0 1 366 529 )" />
      <path d="M 0 15  C 0 7.751321843660321  4.914767730919721 1.8430348866622808  11.65983830145177 0.35960402031355443  C 11.659976884584978 0.35957354266122366  12.004383590066766 0.3029935369810346  12.491820791426676 0.2347215623723287  C 12.773553510899376 0.19526492640250126  13.102263343913535 0.1520048170867767  13.439892836005413 0.11347136056951967  C 13.99247808704257 0.05040512897039662  14.568956084979789 0  15 0  C 23.399999999999977 0  30 6.600000000000023  30 15  C 30 16.99008801615207  29.629549715711278 18.879144136589048  28.952478469328014 20.603339039116804  C 26.771686936045853 26.156830883950306  21.409911983847906 30  15 30  C 6.600000000000023 30  0 23.399999999999977  0 15  Z " stroke-width="2" stroke="#ffffff" fill="none" transform="matrix(1 0 0 1 366 529 )" mask="url(#clip117)" />
    </g>
  </defs>
  <g transform="matrix(1 0 0 1 -362 -525 )">
    <use xlink:href="#widget119" filter="url(#filter118)" />
    <use xlink:href="#widget119" />
  </g>
</svg>