<?xml version="1.0" encoding="utf-8"?>
<svg version="1.1" xmlns:xlink="http://www.w3.org/1999/xlink" width="20px" height="20px" xmlns="http://www.w3.org/2000/svg">
  <g transform="matrix(1 0 0 1 -147 -703 )">
    <path d="M 157 703  C 162.6 703  167 707.4  167 713  C 167 718.6  162.6 723  157 723  C 151.4 723  147 718.6  147 713  C 147 707.4  151.4 703  157 703  Z " fill-rule="nonzero" fill="#cccccc" stroke="none" />
    <path d="M 157 703.5  C 162.32 703.5  166.5 707.68  166.5 713  C 166.5 718.32  162.32 722.5  157 722.5  C 151.68 722.5  147.5 718.32  147.5 713  C 147.5 707.68  151.68 703.5  157 703.5  Z " stroke-width="1" stroke="#797979" fill="none" />
  </g>
</svg>