<?xml version="1.0" encoding="utf-8"?>
<svg version="1.1" xmlns:xlink="http://www.w3.org/1999/xlink" width="36px" height="40px" xmlns="http://www.w3.org/2000/svg">
  <g transform="matrix(1 0 0 1 -9 -478 )">
    <path d="M 27.09375 1.5178571428571104  L 34.40625 8.48214285714289  C 34.84375 8.898809523809518  35.21875 9.464285714285666  35.53125 10.178571428571445  C 35.84375 10.89285714285711  36 11.547619047619037  36 12.14285714285711  L 36 37.85714285714289  C 36 38.45238095238096  35.78125 38.95833333333337  35.34375 39.375  C 34.90625000000001 39.79166666666663  34.375 40  33.75 40  L 2.25 40  C 1.625 40  1.09375 39.79166666666663  0.65625 39.375  C 0.21875 38.95833333333337  0 38.45238095238096  0 37.85714285714289  L 0 2.1428571428571104  C 0 1.5476190476190368  0.21875 1.0416666666666288  0.65625 0.625  C 1.09375 0.20833333333337123  1.625 0  2.25 0  L 23.25 0  C 23.875 0  24.5625 0.1488095238095184  25.3125 0.4464285714285552  C 26.0625 0.744047619047592  26.65625 1.1011904761904816  27.09375 1.5178571428571104  Z M 24.9609375 3.5267857142856656  C 24.7734375 3.3482142857143344  24.453125 3.184523809523853  24 3.0357142857143344  L 24 11.428571428571445  L 32.8125 11.428571428571445  C 32.65625000000001 10.997023809523853  32.484375 10.691964285714334  32.296875 10.51339285714289  L 24.9609375 3.5267857142856656  Z M 3 37  L 33 37  L 33 14.285714285714334  L 23.25 14.285714285714334  C 22.625 14.285714285714334  22.09375 14.077380952380963  21.65625 13.660714285714334  C 21.21875 13.244047619047592  21 12.738095238095184  21 12.14285714285711  L 21 3  L 3 3  L 3 37  Z M 22.5 20  L 30 27.14285714285711  L 30 34  L 6 34  L 6 30  L 10.5 25.714285714285666  L 13.5 28.571428571428555  L 22.5 20  Z M 13.6875 21.60714285714289  C 12.8125 22.440476190476147  11.75 22.85714285714289  10.5 22.85714285714289  C 9.25 22.85714285714289  8.1875 22.440476190476147  7.3125 21.60714285714289  C 6.4375 20.77380952380952  6 19.761904761904816  6 18.571428571428555  C 6 17.380952380952408  6.4375 16.369047619047592  7.3125 15.535714285714334  C 8.1875 14.702380952380963  9.25 14.285714285714334  10.5 14.285714285714334  C 11.75 14.285714285714334  12.8125 14.702380952380963  13.6875 15.535714285714334  C 14.5625 16.369047619047592  15 17.380952380952408  15 18.571428571428555  C 15 19.761904761904816  14.5625 20.77380952380952  13.6875 21.60714285714289  Z " fill-rule="nonzero" fill="#999999" stroke="none" fill-opacity="0.6274509803921569" transform="matrix(1 0 0 1 9 478 )" />
  </g>
</svg>