<?xml version="1.0" encoding="utf-8"?>
<svg version="1.1" xmlns:xlink="http://www.w3.org/1999/xlink" width="49px" height="49px" xmlns="http://www.w3.org/2000/svg">
  <g transform="matrix(1 0 0 1 -293 -218 )">
    <path d="M 48.02556818181818 18.792613636363637  C 48.6751893939394 19.44223484848484  49 20.231060606060606  49 21.159090909090907  L 49 27.840909090909086  C 49 28.768939393939394  48.6751893939394 29.55776515151515  48.02556818181818 30.207386363636363  C 47.375946969696976 30.85700757575757  46.58712121212121 31.18181818181818  45.65909090909091 31  L 31 31  L 31 45.659090909090914  C 31.18181818181818 46.58712121212121  30.857007575757578 47.37594696969697  30.207386363636363 48.02556818181818  C 29.55776515151516 48.6751893939394  28.768939393939394 49  27.840909090909093 49  L 21.15909090909091 49  C 20.231060606060606 49  19.44223484848485 48.6751893939394  18.792613636363637 48.02556818181818  C 18.142992424242426 47.37594696969697  17.81818181818182 46.58712121212121  18 45.659090909090914  L 18 31  L 3.340909090909091 31  C 2.412878787878788 31.18181818181818  1.6240530303030305 30.85700757575757  0.9744318181818181 30.207386363636363  C 0.324810606060606 29.55776515151515  0 28.768939393939394  0 27.840909090909086  L 0 21.159090909090907  C 0 20.231060606060606  0.324810606060606 19.44223484848484  0.9744318181818181 18.792613636363637  C 1.6240530303030305 18.142992424242422  2.412878787878788 17.81818181818182  3.340909090909091 18  L 18 18  L 18 3.3409090909090935  C 17.81818181818182 2.412878787878786  18.142992424242426 1.6240530303030276  18.792613636363637 0.9744318181818187  C 19.44223484848485 0.3248106060606044  20.231060606060606 0  21.15909090909091 0  L 27.840909090909093 0  C 28.768939393939394 0  29.55776515151516 0.3248106060606044  30.207386363636363 0.9744318181818187  C 30.857007575757578 1.6240530303030276  31.18181818181818 2.412878787878786  31 3.3409090909090935  L 31 18  L 45.65909090909091 18  C 46.58712121212121 17.81818181818182  47.375946969696976 18.142992424242422  48.02556818181818 18.792613636363637  Z " fill-rule="nonzero" fill="#ffffff" stroke="none" transform="matrix(1 0 0 1 293 218 )" />
  </g>
</svg>