<?xml version="1.0" encoding="utf-8"?>
<svg version="1.1" xmlns:xlink="http://www.w3.org/1999/xlink" width="300px" height="56px" xmlns="http://www.w3.org/2000/svg">
  <defs>
    <mask fill="white" id="clip11">
      <path d="M 28 56  C 12.319999999999995 56  0 43.68  0 28  C 0 12.32  12.319999999999995 0  28 0  L 272 0  C 287.68 0  300 12.32  300 28  C 300 43.68  287.68 56  272 56  L 164 56  L 28 56  Z " fill-rule="evenodd" />
    </mask>
  </defs>
  <g transform="matrix(1 0 0 1 -125 -15 )">
    <path d="M 28 56  C 12.319999999999995 56  0 43.68  0 28  C 0 12.32  12.319999999999995 0  28 0  L 272 0  C 287.68 0  300 12.32  300 28  C 300 43.68  287.68 56  272 56  L 164 56  L 28 56  Z " fill-rule="nonzero" fill="#ec808d" stroke="none" fill-opacity="0.6274509803921569" transform="matrix(1 0 0 1 125 15 )" />
    <path d="M 28 56  C 12.319999999999995 56  0 43.68  0 28  C 0 12.32  12.319999999999995 0  28 0  L 272 0  C 287.68 0  300 12.32  300 28  C 300 43.68  287.68 56  272 56  L 164 56  L 28 56  Z " stroke-width="2" stroke="#797979" fill="none" transform="matrix(1 0 0 1 125 15 )" mask="url(#clip11)" />
  </g>
</svg>