<?xml version="1.0" encoding="utf-8"?>
<svg version="1.1" xmlns:xlink="http://www.w3.org/1999/xlink" width="40px" height="40px" xmlns="http://www.w3.org/2000/svg">
  <defs>
    <filter x="140px" y="201px" width="40px" height="40px" filterUnits="userSpaceOnUse" id="filter80">
      <feOffset dx="1" dy="1" in="SourceAlpha" result="shadowOffsetInner" />
      <feGaussianBlur stdDeviation="2.5" in="shadowOffsetInner" result="shadowGaussian" />
      <feComposite in2="shadowGaussian" operator="atop" in="SourceAlpha" result="shadowComposite" />
      <feColorMatrix type="matrix" values="0 0 0 0 0  0 0 0 0 0  0 0 0 0 0  0 0 0 0.6980392156862745 0  " in="shadowComposite" />
    </filter>
    <g id="widget81">
      <path d="M 159 205  C 167.4 205  174 211.6  174 220  C 174 228.4  167.4 235  159 235  C 150.6 235  144 228.4  144 220  C 144 211.6  150.6 205  159 205  Z " fill-rule="nonzero" fill="#009dd9" stroke="none" />
      <path d="M 159 205.5  C 167.12 205.5  173.5 211.88  173.5 220  C 173.5 228.12  167.12 234.5  159 234.5  C 150.88 234.5  144.5 228.12  144.5 220  C 144.5 211.88  150.88 205.5  159 205.5  Z " stroke-width="1" stroke="#ffffff" fill="none" />
    </g>
  </defs>
  <g transform="matrix(1 0 0 1 -140 -201 )">
    <use xlink:href="#widget81" filter="url(#filter80)" />
    <use xlink:href="#widget81" />
  </g>
</svg>